# xmcd CD database file
#
# Track frame offsets:
#	150
#	17160
#	39071
#	56934
#	65289
#	78666
#	93031
#	109956
#	119932
#	137417
#	157280
#	178544
#	201722
#	219914
#	234717
#	271744
#
# Disc length: 3910 seconds
#
# Revision: 2
# Processed by: cddbd v1.4b41PL1 Copyright (c) Steve Scherf et al.
# Submitted via: Feurio! 1.50.2ß - http://www.feurio.com
#
DISCID=e90f4410
DTITLE=Various Artist - how late'll ya play'til?
DYEAR=1900
DGENRE=
TTITLE0=david bromberg band -  danger man II
TTITLE1=??? -  - b2
TTITLE2=??? -  - b3
TTITLE3=??? -  - b4
TTITLE4=??? -  - b5
TTITLE5=??? -  - b6
TTITLE6=b7
TTITLE7=b8
TTITLE8=b9
TTITLE9=b10
TTITLE10=b11
TTITLE11=bb1
TTITLE12=bb2
TTITLE13=bb3
TTITLE14=bb4
TTITLE15=bb5
EXTD=
EXTT0=
EXTT1=
EXTT2=
EXTT3=
EXTT4=
EXTT5=
EXTT6=
EXTT7=
EXTT8=
EXTT9=
EXTT10=
EXTT11=
EXTT12=
EXTT13=
EXTT14=
EXTT15=
PLAYORDER=
